<svg xmlns="http://www.w3.org/2000/svg" viewBox="0 0 512 512">
  <rect width="512" height="512" rx="128" fill="#121212"/>
  <circle cx="256" cy="256" r="180" fill="#1DB954"/>
  <path d="M365 348c-5 8-15 11-23 6-63-38-142-47-235-26-9 2-18-4-20-13-2-9 4-18 13-20 102-23 190-13 260 29 8 5 10 16 5 24zm30-67c-6 10-19 13-29 7-72-44-182-57-267-31-11 3-22-3-25-14-3-11 3-22 14-25 97-29 218-15 300 35 10 6 13 19 7 28zm3-69C312 161 166 156 81 182c-14 4-28-4-32-18-4-14 4-28 18-32 97-29 259-23 371 43 12 7 16 23 9 35-7 12-23 16-35 9z" fill="#FFFFFF"/>
</svg>
